<!-- Generator: Adobe Illustrator 22.0.1, SVG Export Plug-In  -->
<svg version="1.1"
	 xmlns="http://www.w3.org/2000/svg" xmlns:xlink="http://www.w3.org/1999/xlink" xmlns:a="http://ns.adobe.com/AdobeSVGViewerExtensions/3.0/"
	 x="0px" y="0px" width="324.857px" height="322.554px" viewBox="0 0 324.857 322.554"
	 style="enable-background:new 0 0 324.857 322.554;" xml:space="preserve">
<style type="text/css">
	.st0{fill-rule:evenodd;clip-rule:evenodd;fill:#BF0019;}
	.st1{fill-rule:evenodd;clip-rule:evenodd;fill:#002C70;}
	.st2{fill:none;}
</style>
<defs>
</defs>
<g>
	<path class="st0" d="M254.56,48.598c18.802,18.767,13.847,51.269-11.792,51.614c-12.534,0.153-27.392-7.766-39.518-14.739
		c-23.271-13.38-33.169-19.46-68.548,7.718c-1.814-26.733,28.245-59.934,66.481-63.261C220.355,28.272,240.833,34.896,254.56,48.598
		z"/>
	<path class="st0" d="M305.653,220.254c-12.049,23.675-44.493,28.993-52.734,4.712c-4.014-11.875-1.066-28.452,1.824-42.138
		c5.546-26.264,8.274-37.555-28.496-62.82c24.869-9.975,65.725,8.37,80.689,43.713C314.432,181.445,314.45,202.968,305.653,220.254z
		"/>
	<path class="st0" d="M158.131,321.827c-26.238-4.156-41.306-33.377-20.752-48.708c10.057-7.482,26.735-9.792,40.645-11.266
		c26.694-2.828,38.276-3.716,50.964-46.487c17.161,20.578,12.316,65.101-16.686,90.24
		C197.755,318.204,177.288,324.861,158.131,321.827z"/>
	<path class="st0" d="M16.013,212.885c-4.15-26.239,18.99-49.595,39.918-34.78c10.222,7.255,17.569,22.404,23.267,35.179
		c10.933,24.516,15.355,35.257,59.954,34.117c-14.272,22.677-58.115,31.819-90.982,11.998
		C31.695,249.453,19.042,232.042,16.013,212.885z"/>
	<path class="st0" d="M75.664,44.122c23.668-12.064,53.037,2.713,45.424,27.199c-3.737,11.965-15.869,23.639-26.254,33.01
		c-19.93,17.982-28.776,25.51-13.893,67.568c-25.98-6.556-48.238-45.419-39.559-82.806C45.743,70.349,58.384,52.93,75.664,44.122z"
		/>
	<path class="st1" d="M163.583,0.002c13.671-0.176,23.856,13.296,14.765,22.866c-4.446,4.654-12.699,7.3-19.603,9.258
		c-13.288,3.761-19.073,5.214-21.765,27.99c-10.501-8.943-11.914-31.912,0.573-47.186C143.832,5.281,153.625,0.12,163.583,0.002z"/>
	<path class="st1" d="M323.777,118.64c4.393,12.948-5.272,26.798-17.183,21.109c-5.801-2.79-10.867-9.821-14.864-15.782
		c-7.684-11.475-10.853-16.528-33.347-12.049c5.26-12.751,26.668-21.194,45.053-14.039
		C312.652,101.488,320.587,109.207,323.777,118.64z"/>
	<path class="st1" d="M260.215,307.833c-10.97,8.16-27.12,3.221-25.369-9.862c0.872-6.377,6.005-13.36,10.449-18.995
		c8.558-10.839,12.391-15.408,1.215-35.436c13.75,1.085,28.365,18.862,27.208,38.556
		C273.117,291.974,268.211,301.897,260.215,307.833z"/>
	<path class="st1" d="M60.829,305.643c-11.148-7.916-11.436-24.802,1.55-27.175c6.335-1.139,14.561,1.587,21.293,4.075
		c12.952,4.794,18.481,7.03,34.081-9.784c3.212,13.414-9.184,32.802-28.274,37.781C79.897,313.019,68.943,311.416,60.829,305.643z"
		/>
	<path class="st1" d="M1.438,115.101c4.105-13.042,20.085-18.506,26.335-6.879c3.032,5.678,2.966,14.344,2.668,21.515
		c-0.58,13.798-1.008,19.747,19.786,29.423c-11.777,7.18-34.037,1.344-44.643-15.291C0.28,135.513-1.562,124.597,1.438,115.101z"/>
	<path class="st1" d="M233.508,196.714c14.985-39.464-4.874-83.636-44.338-98.621c-39.464-14.985-83.636,4.874-98.621,44.338
		c-14.985,39.464,4.874,83.636,44.338,98.621C174.351,256.036,218.523,236.178,233.508,196.714L233.508,196.714z M217.538,190.65
		c-11.638,30.649-45.938,46.07-76.587,34.432c-30.649-11.638-46.07-45.939-34.432-76.587s45.938-46.07,76.587-34.432
		C213.755,125.7,229.176,160.001,217.538,190.65z"/>
	<path class="st1" d="M203.416,185.287c8.677-22.851-2.822-48.426-25.672-57.103s-48.426,2.822-57.103,25.672
		s2.821,48.426,25.672,57.103S194.74,208.138,203.416,185.287L203.416,185.287z M188.874,179.766
		c-5.629,14.824-22.216,22.281-37.039,16.652c-14.824-5.629-22.281-22.216-16.652-37.039s22.215-22.281,37.039-16.652
		C187.046,148.355,194.503,164.942,188.874,179.766z"/>
	<line class="st2" x1="127.302" y1="59.394" x2="127.302" y2="59.394"/>
</g>
</svg>